<svg width="235" height="97" viewBox="0 0 235 97" fill="none" xmlns="http://www.w3.org/2000/svg">
<path d="M28.2119 40.9313V40.8491L28.2735 40.6231C28.4379 40.0067 28.568 39.4725 28.6639 39.0205C28.7598 38.5685 28.8077 38.0823 28.8077 37.5618V26.1383H32.4443V37.5618C32.4443 38.0823 32.4923 38.5685 32.5882 39.0205C32.684 39.4725 32.8142 40.0067 32.9785 40.6231L33.0402 40.8491V40.9313H28.2119ZM24 26.1383H32.6703V27.1245H28.3146C27.2462 27.1245 25.9382 28.234 24.3904 30.4529C24.2397 30.6721 24.1438 30.7954 24.1027 30.8228H24V26.1383ZM36.8617 30.4529C36.259 29.59 35.6221 28.823 34.9509 28.1518C34.2798 27.4669 33.6086 27.1245 32.9374 27.1245H28.5817V26.1383H37.2521V30.8228H37.1493L36.8617 30.4529Z" fill="black"/>
<path d="M44.6737 40.9313V40.8491L44.7354 40.6231C44.8998 40.0067 45.023 39.4725 45.1052 39.0205C45.2011 38.5685 45.249 38.0823 45.249 37.5618V34.295C45.249 33.6786 45.0847 33.2266 44.7559 32.939C44.4272 32.6513 44.0026 32.5075 43.4821 32.5075C42.8246 32.5075 42.1535 32.7404 41.4686 33.2061L41.5508 32.9184C41.9206 32.1788 42.4137 31.5761 43.0301 31.1104C43.6602 30.631 44.4135 30.3913 45.2901 30.3913C46.2626 30.3913 47.0708 30.6926 47.7145 31.2953C48.3583 31.898 48.6802 32.7404 48.6802 33.8224V37.5618C48.6802 38.0823 48.7281 38.5685 48.824 39.0205C48.9199 39.4725 49.05 40.0067 49.2144 40.6231L49.276 40.8491V40.9313H44.6737ZM37.9964 40.9313V40.8491L38.058 40.6231C38.2224 40.0067 38.3456 39.4725 38.4278 39.0205C38.5237 38.5685 38.5716 38.0823 38.5716 37.5618V29.3229C38.5716 28.7887 38.5169 28.2819 38.4073 27.8025C38.2977 27.3094 38.1676 26.8163 38.0169 26.3232C37.9895 26.241 37.9621 26.1657 37.9347 26.0972L37.9142 26.015L38.51 25.9329L42.0028 25.5425V37.5618C42.0028 38.0823 42.0507 38.5685 42.1466 39.0205C42.2425 39.4725 42.3726 40.0067 42.537 40.6231L42.5986 40.8491V40.9313H37.9964Z" fill="black"/>
<path d="M55.4308 41.1573C54.5268 41.1573 53.6638 40.9587 52.842 40.5615C52.0339 40.1643 51.3695 39.5616 50.8491 38.7534C50.3423 37.9316 50.0889 36.9317 50.0889 35.7538C50.0889 34.658 50.3149 33.706 50.7669 32.8979C51.2189 32.0761 51.8558 31.4528 52.6776 31.0282C53.4995 30.6036 54.4377 30.3913 55.4924 30.3913C56.643 30.3913 57.5812 30.6378 58.3072 31.1309C59.0468 31.624 59.5742 32.261 59.8892 33.0417C60.2179 33.8087 60.3823 34.6443 60.3823 35.5483H53.2324L53.294 35.1785L56.9923 34.3155C56.9786 33.4252 56.8621 32.6993 56.643 32.1377C56.4238 31.5624 56.0266 31.2748 55.4513 31.2748C54.8349 31.2748 54.4035 31.583 54.1569 32.1993C53.9241 32.8157 53.8145 33.5759 53.8282 34.4799C53.8282 35.3702 53.9309 36.151 54.1364 36.8221C54.3555 37.4796 54.698 38.0001 55.1637 38.3836C55.6294 38.7534 56.2389 38.9384 56.9923 38.9384C57.5127 38.9384 58.0127 38.8562 58.4921 38.6918C58.9852 38.5274 59.5194 38.2535 60.0947 37.87L60.1769 37.9316C60.0125 38.4384 59.718 38.9384 59.2934 39.4315C58.8688 39.9246 58.3277 40.3355 57.6703 40.6642C57.0128 40.9929 56.2663 41.1573 55.4308 41.1573Z" fill="black"/>
<path d="M31.6023 57.3221C30.2463 57.3221 29.0135 57.0002 27.904 56.3565C26.7946 55.7127 25.9248 54.8155 25.2947 53.665C24.6646 52.5007 24.3496 51.1789 24.3496 49.6996C24.3496 48.3025 24.6783 47.0218 25.3358 45.8575C26.007 44.6933 26.9178 43.7756 28.0684 43.1044C29.2327 42.4332 30.5271 42.0977 31.9516 42.0977C32.7049 42.0977 33.5473 42.2004 34.4787 42.4058C35.4101 42.5976 36.3415 42.8784 37.2729 43.2482V47.2957H37.1086L36.8826 46.967C36.1977 45.9671 35.458 45.0768 34.6636 44.2961C33.8692 43.5153 33.0131 43.1181 32.0954 43.1044C31.3694 43.0907 30.7325 43.3578 30.1846 43.9057C29.6504 44.4536 29.2327 45.2275 28.9313 46.2274C28.6437 47.2273 28.4999 48.3847 28.4999 49.6996C28.4999 51.0008 28.6505 52.1514 28.9519 53.1513C29.2669 54.1512 29.7052 54.9319 30.2668 55.4935C30.8284 56.0414 31.4927 56.3222 32.2597 56.3359C32.9857 56.3496 33.698 56.1578 34.3965 55.7606C35.1088 55.3497 35.732 54.8909 36.2662 54.3841C36.8141 53.8636 37.2318 53.4047 37.5195 53.0075L37.8277 55.7606L37.5811 55.8839C36.7867 56.2674 35.8484 56.603 34.7663 56.8906C33.698 57.1783 32.6433 57.3221 31.6023 57.3221ZM34.1705 52.9253C34.1705 52.4048 34.0404 51.8843 33.7801 51.3638C33.5199 50.8433 33.2186 50.3434 32.8761 49.864L32.7323 49.638V49.5558H38.1769V49.638L38.1359 49.864C37.9304 51.1104 37.8277 52.1309 37.8277 52.9253V55.7606L34.1705 56.3154V52.9253Z" fill="black"/>
<path d="M39.8977 57.5892L39.9593 57.5687C40.4798 58.1302 40.9934 58.548 41.5002 58.822C42.007 59.0959 42.4727 59.1781 42.8973 59.0685C43.322 58.9589 43.6575 58.6028 43.9041 58.0001L47.4174 49.5558C47.7325 48.7887 47.6845 47.8984 47.2736 46.8848L47.2325 46.7616V46.6794H50.0062V46.7616L49.9035 46.9054C49.1912 48.0833 48.6913 49.0147 48.4036 49.6996L44.6437 58.6576C44.1369 59.9177 43.4521 60.7053 42.5892 61.0204C41.7399 61.3354 40.6236 61.2464 39.2402 60.7533L39.8977 57.5892ZM40.4524 49.7202C40.2332 49.2408 39.9661 48.7477 39.6511 48.2409C39.3361 47.7204 39.069 47.2957 38.8498 46.967L38.6855 46.7616V46.6794H44.1712V46.7616L44.1095 46.8643C43.9726 47.3026 43.8767 47.7409 43.8219 48.1792C43.7808 48.6175 43.8698 49.0695 44.089 49.5352L45.9792 53.6444L44.9519 56.1921L44.2123 57.7536L40.4524 49.7202Z" fill="black"/>
<path d="M53.4998 57.281C52.8012 57.281 52.1986 57.1235 51.6918 56.8085C51.185 56.4934 50.8014 56.0825 50.5412 55.5757C50.2946 55.0689 50.1714 54.5347 50.1714 53.9731C50.1714 53.2883 50.3631 52.6856 50.7467 52.1651C51.1439 51.6309 51.6712 51.2337 52.3287 50.9735C52.9861 50.6995 53.6916 50.5831 54.4449 50.6242C54.7325 50.6242 55.0339 50.6516 55.3489 50.7064C55.6776 50.7611 55.9927 50.8433 56.294 50.9529C56.6091 51.0488 56.8693 51.1721 57.0748 51.3227V51.7953C56.9652 51.7542 56.8488 51.7199 56.7255 51.6926C56.6159 51.6652 56.4926 51.6515 56.3557 51.6515C56.2187 51.6378 56.0817 51.6241 55.9447 51.6104C55.4516 51.583 55.0407 51.6446 54.712 51.7953C54.3833 51.9323 54.1367 52.1514 53.9723 52.4527C53.8217 52.7404 53.7463 53.076 53.7463 53.4595C53.7463 54.0348 53.897 54.5073 54.1983 54.8772C54.4997 55.247 54.9106 55.4319 55.4311 55.4319C55.7187 55.4319 55.9858 55.3566 56.2324 55.2059C56.4789 55.0552 56.7049 54.8224 56.9104 54.5073V54.8566C56.8419 55.1853 56.6638 55.5415 56.3762 55.925C56.1023 56.2948 55.7187 56.6167 55.2256 56.8906C54.7325 57.1509 54.1573 57.281 53.4998 57.281ZM51.0137 47.2752C51.9452 47.056 52.8423 46.8848 53.7052 46.7616C54.5819 46.6246 55.3215 46.5561 55.9242 46.5561C57.2939 46.5561 58.3007 46.878 58.9444 47.5218C59.5882 48.1518 59.9101 49.0079 59.9101 50.09V53.9731C59.9101 54.6443 59.9991 55.0963 60.1772 55.3292C60.3689 55.5483 60.7114 55.5415 61.2045 55.3086L61.2456 55.3703C61.1908 55.9318 60.9579 56.3907 60.547 56.7468C60.1498 57.103 59.6156 57.281 58.9444 57.281C58.1637 57.281 57.5542 57.0345 57.1159 56.5414C56.6775 56.0483 56.4584 55.3634 56.4584 54.4868V49.8434C56.4584 48.9942 56.4036 48.3984 56.294 48.0559C56.1844 47.6998 55.9927 47.5218 55.7187 47.5218C55.3078 47.5218 54.6778 47.7957 53.8285 48.3436C52.9793 48.8778 52.0753 49.5352 51.1165 50.316H51.0137V47.2752Z" fill="black"/>
<path d="M65.1371 57.281C64.4385 57.281 63.8358 57.1235 63.329 56.8085C62.8222 56.4934 62.4387 56.0825 62.1785 55.5757C61.9319 55.0689 61.8087 54.5347 61.8087 53.9731C61.8087 53.2883 62.0004 52.6856 62.3839 52.1651C62.7812 51.6309 63.3085 51.2337 63.966 50.9735C64.6234 50.6995 65.3288 50.5831 66.0822 50.6242C66.3698 50.6242 66.6712 50.6516 66.9862 50.7064C67.3149 50.7611 67.63 50.8433 67.9313 50.9529C68.2463 51.0488 68.5066 51.1721 68.712 51.3227V51.7953C68.6025 51.7542 68.486 51.7199 68.3628 51.6926C68.2532 51.6652 68.1299 51.6515 67.9929 51.6515C67.856 51.6378 67.719 51.6241 67.582 51.6104C67.0889 51.583 66.678 51.6446 66.3493 51.7953C66.0205 51.9323 65.774 52.1514 65.6096 52.4527C65.459 52.7404 65.3836 53.076 65.3836 53.4595C65.3836 54.0348 65.5343 54.5073 65.8356 54.8772C66.137 55.247 66.5479 55.4319 67.0684 55.4319C67.356 55.4319 67.6231 55.3566 67.8697 55.2059C68.1162 55.0552 68.3422 54.8224 68.5477 54.5073V54.8566C68.4792 55.1853 68.3011 55.5415 68.0135 55.925C67.7395 56.2948 67.356 56.6167 66.8629 56.8906C66.3698 57.1509 65.7945 57.281 65.1371 57.281ZM62.651 47.2752C63.5824 47.056 64.4796 46.8848 65.3425 46.7616C66.2192 46.6246 66.9588 46.5561 67.5615 46.5561C68.9312 46.5561 69.9379 46.878 70.5817 47.5218C71.2255 48.1518 71.5474 49.0079 71.5474 50.09V53.9731C71.5474 54.6443 71.6364 55.0963 71.8145 55.3292C72.0062 55.5483 72.3487 55.5415 72.8418 55.3086L72.8828 55.3703C72.8281 55.9318 72.5952 56.3907 72.1843 56.7468C71.7871 57.103 71.2529 57.281 70.5817 57.281C69.801 57.281 69.1914 57.0345 68.7531 56.5414C68.3148 56.0483 68.0957 55.3634 68.0957 54.4868V49.8434C68.0957 48.9942 68.0409 48.3984 67.9313 48.0559C67.8217 47.6998 67.63 47.5218 67.356 47.5218C66.9451 47.5218 66.315 47.7957 65.4658 48.3436C64.6166 48.8778 63.7126 49.5352 62.7538 50.316H62.651V47.2752Z" fill="black"/>
<path d="M80.2671 57.0961V57.0139L80.3288 56.7879C80.4931 56.1715 80.6164 55.6374 80.6986 55.1853C80.7945 54.7333 80.8424 54.2471 80.8424 53.7266V50.4598C80.8424 49.8434 80.6849 49.3914 80.3699 49.1038C80.0685 48.8161 79.6782 48.6655 79.1988 48.6518C78.5824 48.6518 77.9249 48.8915 77.2264 49.3709L77.288 49.0216C77.5482 48.3504 77.9866 47.7752 78.6029 47.2957C79.233 46.8026 79.9932 46.5561 80.8835 46.5561C81.856 46.5561 82.6641 46.8574 83.3079 47.4601C83.9517 48.0628 84.2736 48.9052 84.2736 49.9873V53.7266C84.2736 54.2471 84.3215 54.7333 84.4174 55.1853C84.5133 55.6374 84.6434 56.1715 84.8078 56.7879L84.8694 57.0139V57.0961H80.2671ZM73.5692 57.0961V57.0139L73.6308 56.7879C73.7952 56.1715 73.9185 55.6374 74.0007 55.1853C74.0965 54.7333 74.1445 54.2471 74.1445 53.7266V50.0489C74.1445 49.5284 74.0965 49.0421 74.0007 48.5901C73.9185 48.1381 73.7952 47.6039 73.6308 46.9876L73.5692 46.7616V46.6794H77.5756V53.7266C77.5756 54.2471 77.6236 54.7333 77.7195 55.1853C77.8153 55.6374 77.9455 56.1715 78.1098 56.7879L78.1715 57.0139V57.0961H73.5692Z" fill="black"/>
<path d="M24.5137 72.7061V72.6329L24.5686 72.4316C24.715 71.8826 24.8309 71.4068 24.9163 71.0042C25.0017 70.6016 25.0444 70.1685 25.0444 69.705V62.5316C25.0444 62.068 25.0017 61.6349 24.9163 61.2323C24.8309 60.8297 24.715 60.3539 24.5686 59.805L24.5137 59.6037V59.5305H28.2834V69.705C28.2834 70.1685 28.3261 70.6016 28.4115 71.0042C28.4968 71.4068 28.6127 71.8826 28.7591 72.4316L28.814 72.6329V72.7061H24.5137ZM29.6375 66.6307C30.1621 66.6307 30.583 66.4721 30.9002 66.1549C31.2296 65.8255 31.4553 65.429 31.5773 64.9654C31.6992 64.5018 31.7602 64.0138 31.7602 63.5014C31.7602 63.0257 31.6992 62.556 31.5773 62.0924C31.4553 61.6288 31.2357 61.2323 30.9185 60.9029C30.6135 60.5735 30.1987 60.4088 29.6741 60.4088H28.2102L28.2285 66.6307H29.6375ZM27.6063 59.5305H30.7904C31.6322 59.5305 32.3824 59.7074 33.0412 60.0612C33.7122 60.4027 34.2307 60.8785 34.5967 61.4885C34.9626 62.0863 35.1456 62.7573 35.1456 63.5014C35.1456 64.3676 34.9017 65.1057 34.4137 65.7157C33.9379 66.3257 33.3157 66.777 32.5471 67.0698C31.7785 67.3626 30.9673 67.509 30.1133 67.509H27.6429L27.6063 59.5305Z" fill="black"/>
<path d="M36.0206 72.7061V72.6329L36.0755 72.4316C36.2219 71.8826 36.3317 71.4068 36.4049 71.0042C36.4903 70.6016 36.533 70.1685 36.533 69.705V66.4294C36.533 65.9658 36.4903 65.5327 36.4049 65.1301C36.3317 64.7275 36.2219 64.2517 36.0755 63.7027L36.0206 63.5014V63.4283H39.589V69.705C39.589 70.1685 39.6317 70.6016 39.7171 71.0042C39.8025 71.4068 39.9184 71.8826 40.0648 72.4316L40.1197 72.6329V72.7061H36.0206ZM39.4426 65.6608C39.6744 65.0752 39.9672 64.575 40.321 64.1602C40.6747 63.7454 41.1139 63.4588 41.6385 63.3002C42.1753 63.1294 42.7914 63.1599 43.4868 63.3917L43.011 66.649H42.9195C42.6145 66.3074 42.2729 66.0268 41.8947 65.8072C41.5165 65.5876 41.1078 65.4778 40.6686 65.4778C40.2417 65.4656 39.8147 65.612 39.3877 65.917L39.4426 65.6608Z" fill="black"/>
<path d="M48.8559 72.9074C47.9409 72.9074 47.1114 72.7244 46.3672 72.3584C45.623 71.9924 45.0252 71.4434 44.5739 70.7114C44.1347 69.9794 43.9151 69.0889 43.9151 68.0397C43.9151 67.0027 44.1347 66.1305 44.5739 65.4229C45.0252 64.7031 45.623 64.1724 46.3672 63.8308C47.1114 63.4892 47.9409 63.3185 48.8559 63.3185C49.7587 63.3185 50.5822 63.4953 51.3263 63.8491C52.0705 64.1907 52.6683 64.7153 53.1197 65.4229C53.5711 66.1305 53.7968 67.0027 53.7968 68.0397C53.7968 69.0889 53.5711 69.9794 53.1197 70.7114C52.6683 71.4434 52.0644 71.9924 51.308 72.3584C50.5639 72.7244 49.7465 72.9074 48.8559 72.9074ZM48.8559 72.1205C49.2219 72.1205 49.5208 71.9253 49.7526 71.5349C49.9844 71.1445 50.143 70.6504 50.2284 70.0526C50.326 69.4427 50.3748 68.7717 50.3748 68.0397C50.3748 67.3199 50.326 66.6734 50.2284 66.1C50.143 65.5144 49.9844 65.0325 49.7526 64.6543C49.533 64.2761 49.2341 64.087 48.8559 64.087C48.4655 64.087 48.1544 64.2761 47.9226 64.6543C47.7031 65.0325 47.5506 65.5083 47.4652 66.0817C47.3798 66.6551 47.3371 67.3077 47.3371 68.0397C47.3371 68.7961 47.3798 69.4732 47.4652 70.0709C47.5628 70.6565 47.7214 71.1445 47.941 71.5349C48.1605 71.9253 48.4655 72.1205 48.8559 72.1205Z" fill="black"/>
<path d="M53.0858 75.9451C53.6348 75.5547 54.0557 75.1094 54.3485 74.6092C54.6535 74.109 54.8609 73.5722 54.9706 72.9989C55.0804 72.4255 55.1353 71.7728 55.1353 71.0408V66.4294C55.1353 65.9658 55.0926 65.5327 55.0072 65.1301C54.934 64.7275 54.8243 64.2517 54.6779 63.7027L54.623 63.5014V63.4283H58.1547V71.0408C58.1547 72.1388 57.9108 73.0538 57.4228 73.7857C56.947 74.5177 56.3248 75.0606 55.5562 75.4144C54.7877 75.7804 53.9764 75.9756 53.1224 76L53.0858 75.9451ZM56.4712 62.3486C55.9588 62.3486 55.5135 62.1717 55.1353 61.8179C54.7694 61.4519 54.5864 61.0127 54.5864 60.5003C54.5864 59.988 54.7694 59.5549 55.1353 59.2011C55.5013 58.8351 55.9466 58.6521 56.4712 58.6521C56.9958 58.6521 57.4411 58.8351 57.8071 59.2011C58.173 59.5549 58.356 59.988 58.356 60.5003C58.356 61.0127 58.1669 61.4519 57.7888 61.8179C57.4228 62.1717 56.9836 62.3486 56.4712 62.3486Z" fill="black"/>
<path d="M64.1131 72.9074C63.3079 72.9074 62.5393 72.7305 61.8073 72.3767C61.0876 72.0229 60.4959 71.4861 60.0323 70.7663C59.5809 70.0343 59.3552 69.1438 59.3552 68.0946C59.3552 67.1186 59.5565 66.2708 59.9591 65.551C60.3617 64.819 60.929 64.2639 61.661 63.8857C62.3929 63.5075 63.2286 63.3185 64.168 63.3185C65.1927 63.3185 66.0284 63.538 66.675 63.9772C67.3338 64.4164 67.8035 64.9837 68.084 65.6791C68.3768 66.3623 68.5232 67.1064 68.5232 67.9116H62.155L62.2099 67.5822L65.5038 66.8136C65.4916 66.0207 65.3879 65.3741 65.1927 64.8739C64.9975 64.3615 64.6438 64.1053 64.1314 64.1053C63.5824 64.1053 63.1981 64.3798 62.9785 64.9288C62.7711 65.4778 62.6735 66.1549 62.6857 66.96C62.6857 67.753 62.7772 68.4484 62.9602 69.0462C63.1554 69.6318 63.4604 70.0953 63.8752 70.4369C64.29 70.7663 64.8329 70.931 65.5038 70.931C65.9674 70.931 66.4127 70.8578 66.8397 70.7114C67.2789 70.565 67.7547 70.321 68.267 69.9794L68.3402 70.0343C68.1938 70.4857 67.9316 70.931 67.5534 71.3702C67.1752 71.8094 66.6933 72.1754 66.1077 72.4682C65.5221 72.761 64.8573 72.9074 64.1131 72.9074Z" fill="black"/>
<path d="M74.2814 72.9074C73.4762 72.9074 72.7138 72.7305 71.994 72.3767C71.2742 72.0229 70.6825 71.4861 70.2189 70.7663C69.7553 70.0343 69.5236 69.1438 69.5236 68.0946C69.5236 67.1064 69.7248 66.2525 70.1274 65.5327C70.5422 64.8129 71.1095 64.2639 71.8293 63.8857C72.5613 63.5075 73.403 63.3185 74.3546 63.3185C74.9036 63.3185 75.416 63.3795 75.8918 63.5014C76.3675 63.6112 76.8982 63.7698 77.4838 63.9772C77.679 64.0382 77.8559 64.0992 78.0145 64.1602L78.0694 67.1247H77.9779C77.5143 66.3928 76.9531 65.7096 76.2943 65.0752C75.6478 64.4286 75.0317 64.1053 74.4461 64.1053C74.0557 64.1053 73.7446 64.2456 73.5128 64.5262C73.281 64.7946 73.1102 65.1545 73.0004 65.6059C72.8907 66.0573 72.8419 66.5575 72.8541 67.1064C72.8541 67.8872 72.9516 68.5643 73.1468 69.1377C73.3542 69.6989 73.6653 70.138 74.0801 70.4552C74.4949 70.7724 75.0256 70.931 75.6722 70.931C76.5505 70.931 77.4655 70.626 78.4171 70.016L78.472 70.0709C78.3134 70.5101 78.045 70.9493 77.6668 71.3885C77.3008 71.8277 76.825 72.1937 76.2394 72.4865C75.6661 72.7671 75.0134 72.9074 74.2814 72.9074Z" fill="black"/>
<path d="M82.9944 72.9074C82.1892 72.9074 81.5548 72.6451 81.0912 72.1205C80.6398 71.5959 80.4142 70.8395 80.4142 69.8514V64.2883H79.0783V63.4649C80.0055 63.0135 80.8106 62.5194 81.4938 61.9826C82.177 61.4336 82.8114 60.8236 83.397 60.1527H83.4519L83.4702 69.5586C83.4702 70.0099 83.5739 70.3454 83.7812 70.565C84.0008 70.7846 84.2997 70.8944 84.6779 70.8944C85.0439 70.8944 85.4709 70.7846 85.9589 70.565C85.7271 71.2482 85.3672 71.8094 84.8792 72.2486C84.4034 72.6878 83.7751 72.9074 82.9944 72.9074ZM79.2979 63.4832L80.9082 63.4283H85.9223V64.2883H79.2979V63.4832Z" fill="black"/>
<path d="M68.1301 34.7417L70.2654 36.9238L72.4008 34.7417L74.5361 36.9238L76.6714 34.7417L78.8068 36.9238L80.9421 34.7417L76.6714 30.3774L74.5361 32.5595L72.4008 30.3774L70.2654 32.5595L68.1301 30.3774L63.8594 34.7417L65.9947 36.9238L68.1301 34.7417Z" fill="black"/>
<rect x="63.8594" y="39.0327" width="17.01" height="3.0505" fill="black"/>
<rect x="63.8594" y="25" width="17.01" height="3.0505" fill="black"/>
<path d="M101.383 69.2866H102.393C102.971 69.2866 103.187 68.9256 103.187 68.3481V30.1609C103.187 29.5834 102.971 29.2947 102.393 29.2947H101.383V22.5812H116.758V29.2947H114.809C114.16 29.2947 114.015 29.5834 114.015 30.1609V45.2481L119.718 30.2331C119.935 29.5834 119.718 29.2947 119.141 29.2947H117.336V22.5812H130.618V29.2947H129.319C128.669 29.2947 128.525 29.5112 128.164 30.2331L122.822 42.9381L128.814 68.4203C128.958 68.9978 129.103 69.2866 129.68 69.2866H130.691V76H116.253V69.2866H117.336C117.841 69.2866 118.058 68.9256 117.913 68.3481L114.015 50.4456V68.3481C114.015 68.9256 114.16 69.2866 114.809 69.2866H115.676V76H101.383V69.2866ZM131.995 69.2866H133.005C133.583 69.2866 133.799 68.9256 133.799 68.3481V30.1609C133.799 29.5834 133.583 29.2947 133.005 29.2947H131.995V22.5812H157.116V42.7937H147.731V31.8212C147.731 29.6556 147.226 29.2947 145.782 29.2947H144.555V43.8044C144.555 44.3819 144.772 44.6706 145.349 44.6706H150.041V53.2609H145.349C144.772 53.2609 144.555 53.6219 144.555 54.1994V69.2866H145.782C147.226 69.2866 147.731 68.8534 147.731 66.6878V55.21H157.116V76H131.995V69.2866ZM159.594 63.8003V34.7087C159.594 26.0462 164.214 22.0037 172.01 22.0037C179.734 22.0037 184.354 26.0462 184.354 34.7087V63.8003C184.354 72.4628 179.734 76.5775 172.01 76.5775C164.214 76.5775 159.594 72.4628 159.594 63.8003ZM173.598 66.1825V32.3987C173.598 30.3775 173.237 29.1503 172.01 29.1503C170.711 29.1503 170.35 30.3775 170.35 32.3987V66.1825C170.35 68.2037 170.711 69.4309 172.01 69.4309C173.237 69.4309 173.598 68.1316 173.598 66.1825ZM193.381 74.5562C192.515 74.5562 191.937 75.0616 191.648 76H186.451V55.21H196.557V65.8216C196.557 67.7706 196.918 68.9978 198.073 68.9978C199.156 68.9978 199.661 67.6984 199.661 64.45V63.3672C199.661 52.5391 186.451 50.4456 186.451 35.3584C186.451 27.49 190.71 22.0037 196.918 22.0037C200.816 22.0037 201.899 23.9528 203.704 23.9528C204.498 23.9528 205.148 23.5197 205.436 22.5812H210.634V42.7937H200.528V32.6875C200.528 30.7384 200.239 29.5112 199.084 29.5112C197.929 29.5112 197.423 30.7384 197.423 33.6981V34.7809C197.423 44.5984 210.634 48.7853 210.634 62.8619C210.634 71.38 206.375 76.5775 199.95 76.5775C196.341 76.5775 195.186 74.5562 193.381 74.5562Z" fill="black"/>
</svg>
